<?xml version="1.0" standalone="no"?>
<!DOCTYPE svg PUBLIC "-//W3C//DTD SVG 20010904//EN"
 "http://www.w3.org/TR/2001/REC-SVG-20010904/DTD/svg10.dtd">
<svg version="1.0" xmlns="http://www.w3.org/2000/svg"
 width="424.000000pt" height="302.000000pt" viewBox="0 0 424.000000 302.000000"
 preserveAspectRatio="xMidYMid meet">

<g transform="translate(0.000000,302.000000) scale(0.100000,-0.100000)"
fill="#000000" stroke="none">
<path d="M1170 2210 l0 -150 150 0 150 0 0 150 0 150 -150 0 -150 0 0 -150z"/>
<path d="M2430 2210 l0 -150 150 0 150 0 0 150 0 150 -150 0 -150 0 0 -150z"/>
<path d="M2899 2345 c-15 -8 -32 -29 -38 -46 -8 -22 -11 -214 -11 -610 l0
-579 -280 0 -279 0 -24 50 -24 50 33 0 34 0 0 150 0 150 -150 0 -150 0 0 -80
0 -80 -60 0 -60 0 0 85 0 85 -150 0 -150 0 0 -150 0 -150 56 0 c31 0 54 -3 52
-7 -2 -5 -14 -29 -26 -55 l-23 -48 -175 0 -176 0 -29 -29 c-31 -31 -37 -67
-17 -104 23 -44 35 -46 219 -47 l176 0 34 -67 c124 -244 459 -242 580 2 l32
65 317 0 317 0 17 -45 c25 -63 96 -139 164 -172 48 -24 69 -28 137 -28 87 0
149 21 208 71 43 36 94 109 102 145 5 23 12 29 33 29 83 0 213 107 264 217 48
101 47 131 -16 483 -32 173 -61 348 -66 388 -18 138 -95 249 -215 308 l-60 29
-285 2 c-236 3 -290 0 -311 -12z m579 -189 c30 -16 74 -61 90 -91 5 -11 17
-72 26 -135 10 -63 20 -125 23 -137 l5 -23 -291 0 -291 0 0 200 0 200 205 0
c158 0 212 -3 233 -14z m198 -691 c13 -66 23 -139 23 -163 1 -51 -25 -106 -71
-148 -52 -49 -63 -49 -82 1 -23 59 -83 125 -147 160 -42 22 -70 30 -130 33
-84 5 -133 -6 -191 -44 l-38 -24 0 155 0 155 307 -2 307 -3 22 -120z m-1645
-247 c53 -17 87 -45 115 -94 60 -102 17 -245 -91 -302 -77 -40 -198 -7 -249
67 -116 170 36 393 225 329z m1287 -4 c147 -61 178 -261 57 -361 -112 -93
-277 -44 -324 96 -55 166 110 331 267 265z"/>
<path d="M1170 1790 l0 -150 150 0 150 0 0 150 0 150 -150 0 -150 0 0 -150z"/>
<path d="M1590 1790 l0 -150 150 0 150 0 0 150 0 150 -150 0 -150 0 0 -150z"/>
<path d="M2430 1790 l0 -150 150 0 150 0 0 150 0 150 -150 0 -150 0 0 -150z"/>
<path d="M330 1370 l0 -150 150 0 151 0 -3 148 -3 147 -147 3 -148 3 0 -151z"/>
<path d="M750 1360 l0 -151 148 3 147 3 3 148 3 147 -151 0 -150 0 0 -150z"/>
</g>
</svg>
